<svg width="1282" height="1361" viewBox="0 0 1282 1361" fill="none" xmlns="http://www.w3.org/2000/svg">
<path d="M22.6334 962.59C155.292 563.341 969.13 406.203 880.63 691.703C792.13 977.203 1354.13 874.203 1251.13 1074.2C1148.13 1274.2 984.543 1453.6 677.63 1306.2C370.717 1158.81 -110.025 1361.84 22.6334 962.59Z" fill="#FFB7B7"/>
<g clip-path="url(#clip0)">
<path d="M1152.94 503.352C1147.64 503.352 1142.47 501.684 1138.07 498.557C1133.67 495.431 1130.24 490.987 1128.21 485.787C1126.18 480.588 1125.65 474.867 1126.69 469.347C1127.72 463.828 1130.27 458.758 1134.01 454.778C1137.75 450.799 1142.52 448.089 1147.71 446.991C1152.91 445.893 1158.29 446.457 1163.18 448.61C1168.07 450.764 1172.25 454.411 1175.19 459.09C1178.13 463.77 1179.7 469.271 1179.7 474.898C1179.69 482.442 1176.87 489.675 1171.85 495.009C1166.83 500.343 1160.03 503.344 1152.94 503.352Z" fill="#CCCCCC"/>
<path d="M1165.29 473.804H1153.96V460.124C1153.96 459.834 1153.86 459.556 1153.66 459.35C1153.47 459.145 1153.21 459.03 1152.93 459.03C1152.66 459.03 1152.4 459.145 1152.21 459.35C1152.01 459.556 1151.91 459.834 1151.91 460.124V473.804H1140.58C1140.31 473.804 1140.05 473.919 1139.86 474.125C1139.66 474.33 1139.55 474.608 1139.55 474.898C1139.55 475.189 1139.66 475.467 1139.86 475.672C1140.05 475.877 1140.31 475.993 1140.58 475.993H1151.91V489.673C1151.91 489.963 1152.01 490.241 1152.21 490.446C1152.4 490.652 1152.66 490.767 1152.93 490.767C1153.21 490.767 1153.47 490.652 1153.66 490.446C1153.86 490.241 1153.96 489.963 1153.96 489.673V475.993H1165.29C1165.56 475.993 1165.82 475.877 1166.01 475.672C1166.21 475.467 1166.32 475.189 1166.32 474.898C1166.32 474.608 1166.21 474.33 1166.01 474.125C1165.82 473.919 1165.56 473.804 1165.29 473.804Z" fill="white"/>
<path d="M1256 636.69L1244.23 636.689L1238.63 588.431L1256 588.432L1256 636.69Z" fill="#FFB8B8"/>
<path d="M1235.82 633.114H1258.52V648.306H1221.54C1221.54 646.311 1221.9 644.335 1222.62 642.492C1223.34 640.649 1224.39 638.974 1225.72 637.563C1227.05 636.153 1228.62 635.034 1230.36 634.27C1232.09 633.507 1233.95 633.114 1235.82 633.114V633.114Z" fill="#2F2E41"/>
<path d="M1209.16 636.69L1197.4 636.689L1191.8 588.431L1209.17 588.432L1209.16 636.69Z" fill="#FFB8B8"/>
<path d="M1188.99 633.114H1211.68V648.306H1174.7C1174.7 646.311 1175.07 644.335 1175.79 642.492C1176.51 640.649 1177.56 638.974 1178.89 637.563C1180.21 636.153 1181.79 635.034 1183.52 634.27C1185.25 633.507 1187.11 633.114 1188.99 633.114V633.114Z" fill="#2F2E41"/>
<path d="M1265.06 469.85C1264.11 468.738 1263.41 467.419 1262.99 465.985C1262.58 464.552 1262.46 463.038 1262.66 461.552C1262.85 460.066 1263.35 458.644 1264.12 457.385C1264.88 456.125 1265.9 455.06 1267.1 454.264L1263.45 431.136L1276.13 425.353L1280.85 458.092C1281.97 460.316 1282.29 462.903 1281.74 465.36C1281.19 467.818 1279.81 469.975 1277.87 471.425C1275.92 472.874 1273.54 473.515 1271.18 473.224C1268.82 472.934 1266.64 471.734 1265.06 469.85V469.85Z" fill="#FFB8B8"/>
<path d="M1165.8 458.922C1166.9 457.992 1167.8 456.815 1168.44 455.474C1169.07 454.133 1169.42 452.66 1169.46 451.161C1169.5 449.661 1169.23 448.17 1168.67 446.794C1168.11 445.417 1167.27 444.188 1166.21 443.193L1173.4 421.023L1161.79 413.092L1152.06 444.552C1150.6 446.549 1149.89 449.044 1150.05 451.564C1150.21 454.084 1151.23 456.455 1152.92 458.226C1154.62 459.997 1156.86 461.046 1159.23 461.175C1161.61 461.303 1163.94 460.502 1165.8 458.922V458.922Z" fill="#FFB8B8"/>
<path d="M1226.06 295.597C1240.02 295.597 1251.34 283.563 1251.34 268.718C1251.34 253.873 1240.02 241.839 1226.06 241.839C1212.1 241.839 1200.78 253.873 1200.78 268.718C1200.78 283.563 1212.1 295.597 1226.06 295.597Z" fill="#FFB8B8"/>
<path d="M1165.01 442.336C1164.58 442.336 1164.15 442.271 1163.73 442.143L1156.36 439.894C1155.19 439.532 1154.19 438.691 1153.6 437.553C1153 436.414 1152.85 435.072 1153.19 433.819L1168.39 376.733L1189.6 321.384C1191.71 315.882 1196.11 312.273 1201.1 311.967C1203.37 311.849 1205.63 312.435 1207.6 313.654C1209.57 314.873 1211.16 316.674 1212.19 318.836V318.836C1213.33 321.151 1213.96 323.714 1214.02 326.326C1214.08 328.939 1213.58 331.532 1212.56 333.907L1188.45 389.951L1169.29 439.289C1168.94 440.19 1168.35 440.961 1167.59 441.503C1166.83 442.046 1165.93 442.335 1165.01 442.336Z" fill="#3F3D56"/>
<path d="M1240.33 291.259L1226.28 291.525C1224.82 291.555 1223.37 291.22 1222.05 290.546C1220.73 289.871 1219.58 288.877 1218.69 287.643C1217.8 286.409 1217.19 284.969 1216.92 283.44C1216.65 281.911 1216.72 280.336 1217.13 278.841C1217.43 277.761 1217.65 276.659 1217.8 275.544C1217.96 274.328 1217.99 273.097 1217.89 271.874C1217.8 270.649 1217.33 269.493 1216.54 268.594C1215.75 267.696 1214.7 267.109 1213.55 266.93C1212.41 266.751 1211.24 266.99 1210.25 267.608C1209.25 268.227 1208.48 269.187 1208.06 270.333C1205.7 270.368 1200.67 269.55 1198.3 269.586C1193.29 255.917 1204.22 238.031 1215.98 231.313C1227.97 224.464 1243.54 231.432 1248.14 245.706C1254.52 245.828 1259.7 252.518 1260.52 260.049C1261.35 267.58 1258.43 275.444 1253.97 281.217C1249.52 286.989 1243.66 291.196 1240.33 291.259Z" fill="#2F2E41"/>
<path d="M1194.16 632.184C1193.02 632.178 1191.92 631.727 1191.08 630.918C1190.23 630.11 1189.69 628.999 1189.56 627.796L1184.35 441.493L1250.01 446.462L1250.06 446.911C1264.9 578.962 1259.83 624.674 1259.77 625.12C1259.74 625.796 1259.57 626.456 1259.28 627.06C1258.99 627.664 1258.59 628.198 1258.1 628.63C1257.61 629.062 1257.04 629.381 1256.43 629.568C1255.82 629.756 1255.18 629.807 1254.55 629.719L1240.04 630.089C1238.94 629.957 1237.92 629.41 1237.17 628.547C1236.41 627.685 1235.97 626.564 1235.93 625.388L1222.37 490.45C1222.29 490.1 1222.09 489.792 1221.82 489.581C1221.54 489.369 1221.2 489.268 1220.87 489.294C1220.52 489.293 1220.18 489.421 1219.91 489.656C1219.64 489.891 1219.45 490.219 1219.38 490.583L1214.15 625.962C1214.2 627.219 1213.8 628.45 1213.03 629.402C1212.25 630.353 1211.16 630.951 1209.99 631.073L1194.62 632.16C1194.46 632.176 1194.31 632.184 1194.16 632.184V632.184Z" fill="#2F2E41"/>
<path d="M1221.4 463.754C1221.01 463.754 1220.62 463.747 1220.22 463.735C1201.34 463.13 1186.57 447.943 1182.49 443.303C1181.98 442.711 1181.6 441.992 1181.41 441.21C1181.21 440.427 1181.2 439.606 1181.38 438.819L1192.27 389.83L1189.38 347.24C1188.93 341.329 1189.66 335.383 1191.52 329.793C1193.39 324.203 1196.34 319.097 1200.2 314.809C1203.41 311.202 1207.31 308.371 1211.64 306.508C1215.97 304.645 1220.63 303.794 1225.3 304.013C1243.68 304.945 1258.18 322.411 1258.31 343.774C1258.51 376.863 1257.59 379.136 1257.29 379.883C1248.12 402.643 1253.13 434.591 1254.88 443.841C1255.04 444.666 1255 445.52 1254.76 446.322C1254.52 447.124 1254.09 447.847 1253.51 448.423C1243.42 458.6 1232.62 463.753 1221.4 463.754Z" fill="#3F3D56"/>
<path d="M1268.82 451.301C1267.77 451.3 1266.75 450.922 1265.93 450.227C1265.11 449.532 1264.54 448.563 1264.31 447.477L1253.07 395.431L1238.01 335.943C1237.37 333.421 1237.28 330.775 1237.75 328.21C1238.22 325.644 1239.23 323.227 1240.72 321.144C1242.06 319.193 1243.92 317.698 1246.05 316.841C1248.18 315.985 1250.5 315.803 1252.72 316.318C1257.59 317.496 1261.38 321.828 1262.6 327.626L1274.91 385.879L1281.04 444.911C1281.18 446.206 1280.82 447.503 1280.06 448.521C1279.29 449.539 1278.18 450.194 1276.96 450.344L1269.35 451.268C1269.17 451.29 1268.99 451.301 1268.82 451.301Z" fill="#3F3D56"/>
<path d="M663.735 456.914C665.069 455.942 666.186 454.671 667.007 453.191C667.828 451.71 668.335 450.057 668.49 448.346C668.645 446.635 668.446 444.909 667.905 443.289C667.365 441.669 666.498 440.195 665.364 438.97L669.653 337.172L647.815 339.778L649.084 439.351C647.275 441.512 646.275 444.305 646.272 447.198C646.27 450.092 647.267 452.886 649.073 455.051C650.879 457.216 653.369 458.601 656.071 458.945C658.774 459.288 661.501 458.565 663.735 456.914V456.914Z" fill="#FFB8B8"/>
<path d="M703.573 629.234L716.002 631.557L728.286 581.693L712.001 578.264L703.573 629.234Z" fill="#FFB8B8"/>
<path d="M737.942 648.308L698.881 641.007L701.534 624.961L725.504 629.441C727.486 629.811 729.379 630.593 731.077 631.742C732.775 632.89 734.243 634.383 735.398 636.135C736.553 637.887 737.372 639.864 737.809 641.952C738.245 644.041 738.291 646.2 737.942 648.308V648.308Z" fill="#2F2E41"/>
<path d="M669.459 635.849H682.079L688.082 584.097L669.457 584.098L669.459 635.849Z" fill="#FFB8B8"/>
<path d="M706.416 648.306L666.755 648.308L666.755 632.016L691.092 632.015C695.156 632.014 699.054 633.731 701.927 636.786C704.801 639.841 706.416 643.985 706.416 648.306V648.306Z" fill="#2F2E41"/>
<path d="M723.142 621.677C722.945 621.678 722.748 621.665 722.552 621.64L707.699 620.341C707.023 620.256 706.37 620.026 705.78 619.665C705.19 619.304 704.675 618.819 704.266 618.24C703.858 617.66 703.564 616.999 703.404 616.295C703.243 615.592 703.219 614.861 703.332 614.147L717.048 532.417L707.78 480.462C707.705 480.04 707.488 479.662 707.17 479.396C706.853 479.13 706.455 478.996 706.052 479.017C705.648 479.038 705.265 479.214 704.974 479.512C704.683 479.81 704.503 480.21 704.467 480.638L692.881 619.217C692.754 620.608 692.123 621.891 691.123 622.797C690.122 623.703 688.83 624.161 687.519 624.073L673.525 623.519C672.299 623.426 671.147 622.86 670.286 621.926C669.426 620.992 668.917 619.756 668.856 618.451L667.915 452.359L740.463 442.717L745.531 525.935L745.511 526.023L728.022 617.596C727.755 618.759 727.13 619.793 726.245 620.533C725.36 621.273 724.267 621.676 723.142 621.677V621.677Z" fill="#2F2E41"/>
<path d="M691.834 271.206C705.796 271.206 717.115 259.172 717.115 244.327C717.115 229.482 705.796 217.448 691.834 217.448C677.872 217.448 666.553 229.482 666.553 244.327C666.553 259.172 677.872 271.206 691.834 271.206Z" fill="#FFB8B8"/>
<path d="M715.654 464.498C711.701 464.523 707.822 463.343 704.479 461.099C692.233 452.961 678.323 456.195 671.122 458.848C670.407 459.114 669.646 459.205 668.893 459.114C668.141 459.022 667.418 458.752 666.778 458.322C666.145 457.899 665.61 457.33 665.214 456.657C664.817 455.984 664.569 455.224 664.488 454.435L651.393 330.085C649.198 309.25 661.002 289.662 679.46 283.508C680.153 283.277 680.858 283.057 681.575 282.85C687.319 281.194 693.334 280.897 699.198 281.979C705.062 283.061 710.631 285.496 715.514 289.113C720.488 292.769 724.648 297.54 727.701 303.09C730.754 308.64 732.625 314.834 733.184 321.236L744.209 446.42C744.284 447.23 744.181 448.048 743.908 448.809C743.635 449.57 743.2 450.253 742.637 450.805C738.772 454.606 727.556 464.497 715.654 464.498Z" fill="#F67280"/>
<path d="M675.778 356.751L646.233 353.297C645.392 353.198 644.582 352.909 643.856 352.447C643.13 351.986 642.506 351.363 642.027 350.622C641.548 349.882 641.225 349.04 641.079 348.154C640.933 347.268 640.969 346.359 641.184 345.49L648.704 315.015C649.201 310.445 651.383 306.271 654.77 303.409C658.157 300.546 662.474 299.228 666.774 299.745C671.073 300.261 675.005 302.569 677.707 306.162C680.408 309.756 681.659 314.342 681.186 318.915L682.302 350.296C682.334 351.195 682.183 352.09 681.86 352.921C681.537 353.752 681.049 354.499 680.43 355.112C679.811 355.724 679.075 356.188 678.272 356.471C677.469 356.753 676.619 356.849 675.778 356.751V356.751Z" fill="#F67280"/>
<path d="M744.091 452.555C745.305 451.419 746.269 450.014 746.917 448.44C747.564 446.865 747.879 445.158 747.84 443.44C747.8 441.722 747.406 440.034 746.686 438.495C745.967 436.956 744.938 435.603 743.674 434.533L736.393 332.928L714.995 338.049L727.556 436.997C726.005 439.375 725.328 442.275 725.654 445.148C725.98 448.021 727.286 450.667 729.324 452.584C731.362 454.502 733.991 455.558 736.713 455.553C739.435 455.547 742.06 454.481 744.091 452.555Z" fill="#FFB8B8"/>
<path d="M706.791 350.363C706.172 349.751 705.684 349.004 705.361 348.173C705.038 347.342 704.887 346.447 704.919 345.548L706.036 314.166C705.562 309.594 706.813 305.008 709.515 301.414C712.216 297.821 716.148 295.513 720.448 294.997C724.747 294.48 729.064 295.798 732.451 298.661C735.839 301.523 738.02 305.697 738.517 310.267L746.038 340.742C746.252 341.611 746.288 342.52 746.143 343.406C745.997 344.291 745.674 345.133 745.194 345.874C744.715 346.615 744.092 347.238 743.366 347.699C742.64 348.161 741.829 348.45 740.988 348.549L711.443 352.003C710.603 352.101 709.752 352.006 708.949 351.723C708.146 351.44 707.41 350.976 706.791 350.363V350.363Z" fill="#F67280"/>
<path d="M690.33 272.219C689.881 272.218 689.433 272.163 688.996 272.053L688.867 272.02C666.64 268.405 661.727 254.716 660.649 249C659.533 243.081 660.804 237.368 663.676 235.149C662.11 229.893 662.361 225.233 664.424 221.292C668.022 214.419 675.83 212.095 676.877 211.811C683.113 206.92 690.574 210.185 691.931 210.847C703.994 206.102 708.604 210.052 709.438 210.933C714.83 211.963 718.116 214.178 719.207 217.517C721.257 223.789 714.776 231.59 714.499 231.92L714.355 232.09L704.7 232.579C703.784 232.625 702.887 232.876 702.068 233.315C701.248 233.754 700.525 234.37 699.945 235.125C699.364 235.88 698.939 236.757 698.698 237.698C698.456 238.638 698.404 239.623 698.543 240.586C698.804 241.83 699.135 243.056 699.532 244.259C701.181 249.738 702.416 254.418 700.823 256.197C700.462 256.542 700.017 256.771 699.539 256.859C699.061 256.947 698.569 256.891 698.12 256.696C696.611 256.267 695.586 256.357 695.075 256.963C694.282 257.904 694.524 260.284 695.757 263.667C696.143 264.736 696.247 265.898 696.058 267.026C695.868 268.154 695.392 269.205 694.68 270.066C694.144 270.738 693.478 271.278 692.727 271.65C691.976 272.021 691.159 272.216 690.33 272.219Z" fill="#2F2E41"/>
<path d="M777.135 650H633.029C632.756 650 632.495 649.885 632.301 649.679C632.108 649.474 632 649.196 632 648.906C632 648.615 632.108 648.337 632.301 648.132C632.495 647.927 632.756 647.811 633.029 647.811H777.135C777.408 647.811 777.669 647.927 777.862 648.132C778.055 648.337 778.164 648.615 778.164 648.906C778.164 649.196 778.055 649.474 777.862 649.679C777.669 649.885 777.408 650 777.135 650Z" fill="#CCCCCC"/>
<path d="M1279.44 650H1135.34C1135.07 650 1134.8 649.885 1134.61 649.679C1134.42 649.474 1134.31 649.196 1134.31 648.906C1134.31 648.615 1134.42 648.337 1134.61 648.132C1134.8 647.927 1135.07 647.811 1135.34 647.811H1279.44C1279.72 647.811 1279.98 647.927 1280.17 648.132C1280.37 648.337 1280.47 648.615 1280.47 648.906C1280.47 649.196 1280.37 649.474 1280.17 649.679C1279.98 649.885 1279.72 650 1279.44 650Z" fill="#CCCCCC"/>
<path d="M1073.28 464.019H824.187C814.636 464.008 805.479 459.968 798.725 452.788C791.971 445.607 788.172 435.871 788.161 425.716V38.3035C788.172 28.1483 791.971 18.4124 798.725 11.2316C805.479 4.05076 814.636 0.0115253 824.187 0H1073.28C1082.84 0.0115253 1091.99 4.05076 1098.75 11.2316C1105.5 18.4124 1109.3 28.1483 1109.31 38.3035V425.716C1109.3 435.871 1105.5 445.607 1098.75 452.788C1091.99 459.968 1082.84 464.008 1073.28 464.019V464.019Z" fill="white"/>
<path d="M1034.17 307.554H863.302C845.848 307.465 845.776 279.197 863.303 279.1L1034.17 279.1C1051.61 279.187 1051.71 307.457 1034.17 307.554Z" fill="#CCCCCC"/>
<path d="M1034.17 79.8578H863.302C845.848 79.7684 845.776 51.5006 863.303 51.4038L1034.17 51.4037C1051.61 51.4906 1051.71 79.7606 1034.17 79.8578Z" fill="#CCCCCC"/>
<path d="M1034.17 360.085H863.302C845.848 359.995 845.776 331.728 863.303 331.631L1034.17 331.631C1051.61 331.718 1051.71 359.988 1034.17 360.085Z" fill="#CCCCCC"/>
<path d="M1034.17 412.615H863.302C845.848 412.526 845.776 384.258 863.303 384.161L1034.17 384.161C1051.61 384.248 1051.71 412.518 1034.17 412.615Z" fill="#CCCCCC"/>
<path d="M1031.08 244.955H866.39C861.887 244.95 857.57 243.046 854.386 239.661C851.202 236.275 849.411 231.686 849.406 226.898V128.842C849.411 124.054 851.202 119.464 854.386 116.079C857.57 112.694 861.887 110.79 866.39 110.784H1031.08C1035.58 110.79 1039.9 112.694 1043.09 116.079C1046.27 119.464 1048.06 124.054 1048.07 128.842V226.898C1048.06 231.686 1046.27 236.275 1043.09 239.661C1039.9 243.046 1035.58 244.95 1031.08 244.955V244.955Z" fill="#F67280"/>
<path d="M1073.28 464.019H824.187C814.636 464.008 805.479 459.968 798.725 452.788C791.971 445.607 788.172 435.871 788.161 425.716V38.3035C788.172 28.1483 791.971 18.4124 798.725 11.2316C805.479 4.05076 814.636 0.0115253 824.187 0H1073.28C1082.84 0.0115253 1091.99 4.05076 1098.75 11.2316C1105.5 18.4124 1109.3 28.1483 1109.31 38.3035V425.716C1109.3 435.871 1105.5 445.607 1098.75 452.788C1091.99 459.968 1082.84 464.008 1073.28 464.019V464.019ZM824.187 6.56631C816.273 6.57582 808.686 9.92261 803.09 15.8724C797.494 21.8222 794.346 29.8892 794.337 38.3035V425.716C794.346 434.13 797.494 442.197 803.09 448.147C808.686 454.097 816.273 457.443 824.187 457.453H1073.28C1081.2 457.443 1088.79 454.097 1094.38 448.147C1099.98 442.197 1103.13 434.13 1103.13 425.716V38.3035C1103.13 29.8892 1099.98 21.8222 1094.38 15.8724C1088.79 9.92257 1081.2 6.5758 1073.28 6.56631H824.187Z" fill="#E6E6E6"/>
</g>
<defs>
<clipPath id="clip0">
<rect width="650" height="650" fill="white" transform="translate(632)"/>
</clipPath>
</defs>
</svg>
