<svg width="398" height="432" viewBox="0 0 398 432" fill="none" xmlns="http://www.w3.org/2000/svg">
<g clip-path="url(#clip0)">
<path d="M318.972 334.536C315.731 334.536 312.563 333.427 309.868 331.349C307.174 329.271 305.073 326.317 303.833 322.862C302.593 319.406 302.268 315.604 302.9 311.935C303.533 308.267 305.093 304.897 307.385 302.253C309.677 299.608 312.597 297.807 315.776 297.077C318.954 296.348 322.249 296.722 325.243 298.153C328.238 299.585 330.797 302.009 332.598 305.118C334.398 308.228 335.359 311.885 335.359 315.625C335.354 320.639 333.626 325.445 330.554 328.991C327.482 332.536 323.317 334.53 318.972 334.536Z" fill="#CCCCCC"/>
<path d="M326.536 314.897H319.603V305.806C319.603 305.613 319.536 305.428 319.418 305.291C319.3 305.155 319.14 305.078 318.972 305.078C318.805 305.078 318.645 305.155 318.527 305.291C318.409 305.428 318.342 305.613 318.342 305.806V314.897H311.409C311.242 314.897 311.082 314.974 310.964 315.111C310.845 315.247 310.779 315.432 310.779 315.625C310.779 315.818 310.845 316.003 310.964 316.139C311.082 316.276 311.242 316.352 311.409 316.352H318.342V325.444C318.342 325.637 318.409 325.822 318.527 325.958C318.645 326.095 318.805 326.171 318.972 326.171C319.14 326.171 319.3 326.095 319.418 325.958C319.536 325.822 319.603 325.637 319.603 325.444V316.352H326.536C326.703 316.352 326.863 316.276 326.981 316.139C327.099 316.003 327.166 315.818 327.166 315.625C327.166 315.432 327.099 315.247 326.981 315.111C326.863 314.974 326.703 314.897 326.536 314.897Z" fill="white"/>
<path d="M382.078 423.154L374.873 423.153L371.447 391.08L382.08 391.081L382.078 423.154Z" fill="#FFB8B8"/>
<path d="M369.726 420.777H383.622V430.874H360.977C360.977 429.548 361.203 428.235 361.643 427.01C362.082 425.785 362.727 424.672 363.539 423.734C364.352 422.797 365.316 422.053 366.378 421.546C367.439 421.038 368.577 420.777 369.726 420.777V420.777Z" fill="#2F2E41"/>
<path d="M353.401 423.154L346.196 423.153L342.77 391.08L353.403 391.081L353.401 423.154Z" fill="#FFB8B8"/>
<path d="M341.049 420.777H354.945V430.874H332.3C332.3 429.548 332.526 428.235 332.966 427.01C333.405 425.785 334.05 424.672 334.862 423.734C335.675 422.797 336.639 422.053 337.701 421.546C338.762 421.038 339.9 420.777 341.049 420.777V420.777Z" fill="#2F2E41"/>
<path d="M387.628 312.27C387.049 311.531 386.616 310.654 386.362 309.701C386.107 308.748 386.037 307.742 386.156 306.755C386.274 305.767 386.579 304.822 387.049 303.985C387.519 303.148 388.142 302.44 388.874 301.911L386.642 286.54L394.406 282.696L397.293 304.455C397.982 305.933 398.176 307.652 397.84 309.286C397.504 310.919 396.66 312.353 395.469 313.316C394.277 314.28 392.821 314.705 391.376 314.512C389.931 314.319 388.598 313.522 387.628 312.27V312.27Z" fill="#FFB8B8"/>
<path d="M326.847 305.007C327.525 304.388 328.077 303.606 328.464 302.715C328.852 301.823 329.065 300.845 329.089 299.848C329.114 298.852 328.948 297.861 328.605 296.946C328.261 296.031 327.748 295.214 327.102 294.553L331.503 279.818L324.397 274.548L318.434 295.456C317.543 296.784 317.105 298.442 317.203 300.117C317.301 301.791 317.928 303.367 318.965 304.544C320.002 305.721 321.377 306.419 322.83 306.504C324.283 306.589 325.712 306.056 326.847 305.007V305.007Z" fill="#FFB8B8"/>
<path d="M363.749 196.458C372.299 196.458 379.229 188.46 379.229 178.594C379.229 168.728 372.299 160.73 363.749 160.73C355.2 160.73 348.269 168.728 348.269 178.594C348.269 188.46 355.2 196.458 363.749 196.458Z" fill="#FFB8B8"/>
<path d="M326.369 293.983C326.103 293.983 325.839 293.94 325.584 293.855L321.072 292.36C320.351 292.12 319.742 291.561 319.378 290.804C319.013 290.048 318.923 289.156 319.126 288.322L328.437 250.383L341.422 213.597C342.713 209.94 345.411 207.542 348.462 207.338C349.855 207.26 351.239 207.649 352.444 208.459C353.65 209.27 354.626 210.466 355.255 211.904V211.904C355.953 213.442 356.337 215.145 356.376 216.881C356.415 218.618 356.108 220.341 355.48 221.92L340.721 259.167L328.988 291.958C328.774 292.557 328.411 293.069 327.945 293.43C327.478 293.79 326.93 293.983 326.369 293.983Z" fill="#3F3D56"/>
<path d="M372.485 193.575L363.884 193.752C362.988 193.772 362.101 193.549 361.293 193.101C360.485 192.653 359.78 191.992 359.235 191.172C358.689 190.352 358.318 189.395 358.152 188.379C357.986 187.363 358.029 186.316 358.277 185.322C358.461 184.604 358.599 183.872 358.69 183.131C358.787 182.323 358.806 181.505 358.747 180.692C358.692 179.877 358.4 179.109 357.917 178.512C357.434 177.915 356.79 177.525 356.09 177.406C355.39 177.287 354.676 177.446 354.065 177.857C353.453 178.267 352.981 178.906 352.725 179.667C351.279 179.691 348.198 179.147 346.752 179.171C343.681 170.086 350.373 158.199 357.576 153.734C364.919 149.182 374.451 153.813 377.266 163.3C381.173 163.381 384.347 167.827 384.85 172.833C385.354 177.838 383.569 183.065 380.84 186.901C378.11 190.737 374.526 193.533 372.485 193.575Z" fill="#2F2E41"/>
<path d="M344.213 420.159C343.516 420.155 342.844 419.856 342.326 419.318C341.808 418.78 341.479 418.042 341.401 417.243L338.209 293.423L378.412 296.726L378.443 297.024C387.528 384.787 384.423 415.168 384.39 415.464C384.368 415.913 384.265 416.352 384.09 416.754C383.914 417.155 383.668 417.51 383.368 417.797C383.068 418.084 382.719 418.296 382.345 418.421C381.97 418.545 381.578 418.58 381.191 418.521L372.307 418.767C371.633 418.679 371.009 418.315 370.548 417.742C370.087 417.169 369.819 416.424 369.792 415.642L361.491 325.961C361.44 325.728 361.319 325.523 361.15 325.383C360.981 325.242 360.775 325.175 360.567 325.193C360.353 325.192 360.146 325.277 359.98 325.433C359.815 325.589 359.702 325.807 359.66 326.049L356.453 416.024C356.487 416.859 356.242 417.678 355.767 418.31C355.293 418.942 354.627 419.34 353.906 419.421L344.494 420.143C344.401 420.154 344.307 420.159 344.213 420.159V420.159Z" fill="#2F2E41"/>
<path d="M360.895 308.218C360.654 308.218 360.414 308.214 360.173 308.205C348.613 307.803 339.569 297.71 337.072 294.626C336.754 294.233 336.526 293.755 336.407 293.235C336.288 292.715 336.282 292.169 336.391 291.646L343.06 259.087L341.29 230.781C341.012 226.852 341.459 222.9 342.6 219.185C343.741 215.47 345.552 212.077 347.912 209.227C349.878 206.83 352.268 204.948 354.92 203.71C357.572 202.472 360.424 201.906 363.281 202.051C374.535 202.671 383.413 214.279 383.493 228.478C383.618 250.469 383.057 251.98 382.872 252.476C377.256 267.603 380.323 288.836 381.397 294.983C381.493 295.532 381.466 296.099 381.319 296.632C381.171 297.165 380.908 297.646 380.555 298.029C374.378 304.793 367.767 308.218 360.895 308.218Z" fill="#3F3D56"/>
<path d="M389.927 299.942C389.286 299.941 388.664 299.689 388.162 299.228C387.661 298.766 387.31 298.122 387.167 297.4L380.286 262.81L371.065 223.273C370.671 221.597 370.616 219.838 370.903 218.133C371.19 216.428 371.812 214.822 372.721 213.438C373.547 212.14 374.681 211.147 375.986 210.578C377.291 210.008 378.711 209.888 380.074 210.23C383.054 211.013 385.371 213.892 386.121 217.745L393.656 256.461L397.414 295.695C397.495 296.555 397.278 297.418 396.81 298.094C396.342 298.77 395.661 299.206 394.916 299.306L390.252 299.92C390.145 299.934 390.036 299.942 389.927 299.942Z" fill="#3F3D56"/>
<path d="M19.4321 303.672C20.2485 303.026 20.9323 302.181 21.4353 301.198C21.9382 300.214 22.2482 299.115 22.3432 297.978C22.4383 296.841 22.3162 295.693 21.9855 294.617C21.6547 293.54 21.1235 292.56 20.4291 291.746L23.0555 224.09L9.68419 225.822L10.461 291.999C9.35327 293.436 8.7407 295.292 8.7394 297.215C8.73809 299.138 9.34814 300.995 10.4539 302.434C11.5597 303.873 13.0845 304.793 14.7392 305.022C16.394 305.25 18.0637 304.77 19.4321 303.672V303.672Z" fill="#FFB8B8"/>
<path d="M43.8247 418.199L51.4351 419.743L58.9567 386.602L48.9853 384.323L43.8247 418.199Z" fill="#FFB8B8"/>
<path d="M64.8696 430.875L40.9519 426.023L42.5764 415.358L57.2532 418.336C58.4667 418.582 59.6264 419.102 60.6659 419.865C61.7054 420.629 62.6045 421.621 63.3117 422.785C64.0189 423.95 64.5205 425.263 64.7878 426.651C65.0551 428.04 65.0829 429.475 64.8696 430.875V430.875Z" fill="#2F2E41"/>
<path d="M22.9365 422.595H30.6635L34.3392 388.2L22.9353 388.201L22.9365 422.595Z" fill="#FFB8B8"/>
<path d="M45.5657 430.874L21.2812 430.875L21.2808 420.047L36.1826 420.047C38.6711 420.047 41.0576 421.187 42.8173 423.218C44.5769 425.248 45.5656 428.002 45.5657 430.874V430.874Z" fill="#2F2E41"/>
<path d="M55.8065 413.176C55.6859 413.176 55.5654 413.168 55.4457 413.152L46.351 412.288C45.9369 412.232 45.5371 412.079 45.1757 411.839C44.8144 411.599 44.4991 411.277 44.249 410.892C43.9989 410.507 43.8193 410.067 43.721 409.599C43.6227 409.132 43.6077 408.646 43.6771 408.172L52.0752 353.853L46.4006 319.323C46.3543 319.042 46.2217 318.79 46.0272 318.614C45.8327 318.437 45.5895 318.348 45.3423 318.362C45.0952 318.376 44.8608 318.493 44.6824 318.691C44.5041 318.889 44.3937 319.155 44.3718 319.439L37.2777 411.541C37.1998 412.465 36.8138 413.319 36.2012 413.921C35.5886 414.523 34.7974 414.827 33.9943 414.768L25.426 414.4C24.6751 414.339 23.9697 413.962 23.4429 413.342C22.9162 412.721 22.6045 411.899 22.5668 411.032L21.9909 300.644L66.4125 294.237L69.5157 349.544L69.5033 349.603L58.7947 410.464C58.6316 411.237 58.2485 411.924 57.7067 412.416C57.1649 412.908 56.4958 413.175 55.8065 413.176V413.176Z" fill="#2F2E41"/>
<path d="M36.6366 180.248C45.1859 180.248 52.1165 172.25 52.1165 162.383C52.1165 152.517 45.1859 144.519 36.6366 144.519C28.0873 144.519 21.1567 152.517 21.1567 162.383C21.1567 172.25 28.0873 180.248 36.6366 180.248Z" fill="#FFB8B8"/>
<path d="M51.2225 308.712C48.8014 308.729 46.4269 307.945 44.3798 306.453C36.8813 301.045 28.3644 303.195 23.9549 304.957C23.5174 305.134 23.0508 305.195 22.5902 305.134C22.1296 305.073 21.6868 304.893 21.2949 304.608C20.9075 304.327 20.5801 303.949 20.3374 303.501C20.0946 303.054 19.9426 302.549 19.8929 302.024L11.8744 219.379C10.5307 205.532 17.7584 192.514 29.0602 188.424C29.4848 188.27 29.9166 188.124 30.3555 187.987C33.8725 186.886 37.5558 186.688 41.1461 187.408C44.7364 188.127 48.1465 189.745 51.1365 192.149C54.1822 194.579 56.7293 197.75 58.5986 201.439C60.4679 205.127 61.6139 209.244 61.9561 213.499L68.7065 296.697C68.7525 297.236 68.6895 297.78 68.5225 298.285C68.3555 298.791 68.089 299.245 67.744 299.612C65.3777 302.138 58.5096 308.712 51.2225 308.712Z" fill="#F67280"/>
<path d="M26.8054 237.102L8.71474 234.806C8.20002 234.741 7.70353 234.549 7.25911 234.242C6.81469 233.935 6.43278 233.521 6.13938 233.029C5.84597 232.537 5.64797 231.977 5.55887 231.388C5.46977 230.8 5.49166 230.196 5.62304 229.618L10.2278 209.364C10.5323 206.327 11.868 203.553 13.9421 201.65C16.0161 199.748 18.6593 198.872 21.292 199.215C23.9247 199.558 26.3321 201.092 27.9863 203.48C29.6406 205.868 30.4066 208.916 30.1166 211.956L30.8002 232.812C30.8196 233.41 30.7272 234.005 30.5294 234.557C30.3316 235.109 30.033 235.606 29.6539 236.013C29.2748 236.42 28.8241 236.728 28.3326 236.916C27.841 237.104 27.3201 237.167 26.8054 237.102V237.102Z" fill="#F67280"/>
<path d="M68.6342 300.775C69.3772 300.02 69.9678 299.087 70.3643 298.04C70.7609 296.993 70.9538 295.859 70.9294 294.717C70.905 293.575 70.664 292.453 70.2233 291.43C69.7825 290.408 69.1528 289.509 68.3785 288.797L63.9207 221.269L50.8185 224.673L58.5095 290.435C57.5599 292.015 57.1456 293.943 57.3451 295.852C57.5446 297.761 58.3441 299.52 59.5921 300.795C60.8401 302.069 62.4499 302.771 64.1164 302.767C65.7829 302.764 67.3904 302.055 68.6342 300.775Z" fill="#FFB8B8"/>
<path d="M45.7952 232.857C45.416 232.45 45.1173 231.953 44.9195 231.401C44.7217 230.849 44.6295 230.254 44.6491 229.657L45.3327 208.8C45.0427 205.761 45.8087 202.713 47.463 200.324C49.1172 197.936 51.5246 196.402 54.1573 196.059C56.79 195.716 59.4332 196.592 61.5072 198.494C63.5813 200.397 64.917 203.171 65.2215 206.208L69.8263 226.462C69.9577 227.04 69.9795 227.644 69.8904 228.233C69.8013 228.821 69.6033 229.381 69.3099 229.873C69.0165 230.366 68.6346 230.779 68.1902 231.086C67.7458 231.393 67.2493 231.585 66.7346 231.651L48.6439 233.946C48.1291 234.012 47.6081 233.949 47.1165 233.761C46.6249 233.573 46.1742 233.264 45.7952 232.857V232.857Z" fill="#F67280"/>
<path d="M35.7159 180.921C35.4408 180.921 35.1665 180.884 34.8987 180.811L34.8201 180.789C21.2099 178.386 18.2021 169.288 17.5419 165.489C16.8585 161.555 17.6366 157.758 19.3949 156.284C18.4363 152.791 18.5902 149.693 19.8533 147.074C22.0563 142.506 26.8373 140.962 27.4785 140.773C31.2967 137.522 35.865 139.692 36.6962 140.132C44.082 136.979 46.9049 139.604 47.4155 140.19C50.717 140.874 52.7293 142.346 53.3974 144.565C54.6523 148.733 50.6839 153.919 50.5143 154.137L50.4263 154.251L44.5144 154.576C43.9534 154.606 43.4043 154.773 42.9027 155.065C42.4011 155.356 41.9582 155.766 41.6028 156.268C41.2473 156.77 40.9873 157.352 40.8394 157.977C40.6916 158.603 40.6593 159.257 40.7446 159.897C40.9046 160.724 41.1068 161.539 41.35 162.338C42.3596 165.979 43.1161 169.09 42.1404 170.273C41.9194 170.502 41.6469 170.654 41.3543 170.713C41.0617 170.771 40.7607 170.733 40.4858 170.604C39.5615 170.319 38.9339 170.379 38.6212 170.782C38.1357 171.407 38.2839 172.989 39.0385 175.237C39.2752 175.948 39.339 176.72 39.2228 177.47C39.1066 178.219 38.8149 178.918 38.3793 179.49C38.0513 179.936 37.6434 180.296 37.1836 180.543C36.7238 180.79 36.2231 180.919 35.7159 180.921Z" fill="#2F2E41"/>
<path d="M88.867 432H0.630263C0.463107 432 0.302787 431.923 0.18459 431.787C0.0663924 431.651 0 431.466 0 431.273C0 431.08 0.0663924 430.895 0.18459 430.758C0.302787 430.622 0.463107 430.545 0.630263 430.545H88.867C89.0342 430.545 89.1945 430.622 89.3127 430.758C89.4309 430.895 89.4973 431.08 89.4973 431.273C89.4973 431.466 89.4309 431.651 89.3127 431.787C89.1945 431.923 89.0342 432 88.867 432Z" fill="#CCCCCC"/>
<path d="M396.435 432H308.198C308.031 432 307.871 431.923 307.753 431.787C307.635 431.651 307.568 431.466 307.568 431.273C307.568 431.08 307.635 430.895 307.753 430.758C307.871 430.622 308.031 430.545 308.198 430.545H396.435C396.602 430.545 396.763 430.622 396.881 430.758C396.999 430.895 397.065 431.08 397.065 431.273C397.065 431.466 396.999 431.651 396.881 431.787C396.763 431.923 396.602 432 396.435 432Z" fill="#CCCCCC"/>
<path d="M270.202 308.394H117.678C111.83 308.387 106.223 305.702 102.087 300.93C97.9517 296.157 95.6254 289.687 95.6188 282.937V25.4571C95.6254 18.7078 97.9517 12.2371 102.087 7.46467C106.223 2.6922 111.83 0.00765992 117.678 0H270.202C276.05 0.00765992 281.657 2.6922 285.792 7.46467C289.928 12.2371 292.254 18.7078 292.261 25.4571V282.937C292.254 289.687 289.928 296.157 285.792 300.93C281.657 305.702 276.05 308.387 270.202 308.394V308.394Z" fill="white"/>
<path d="M246.252 204.405H141.628C130.941 204.346 130.896 185.559 141.629 185.494L246.252 185.494C256.932 185.552 256.99 204.341 246.252 204.405Z" fill="#CCCCCC"/>
<path d="M246.252 53.0747H141.628C130.941 53.0153 130.896 34.2281 141.629 34.1638L246.252 34.1637C256.932 34.2214 256.99 53.0101 246.252 53.0747Z" fill="#CCCCCC"/>
<path d="M246.252 239.318H141.628C130.941 239.259 130.896 220.471 141.629 220.407L246.252 220.407C256.932 220.465 256.99 239.253 246.252 239.318Z" fill="#CCCCCC"/>
<path d="M246.252 274.231H141.628C130.941 274.171 130.896 255.384 141.629 255.32L246.252 255.32C256.932 255.377 256.99 274.166 246.252 274.231Z" fill="#CCCCCC"/>
<path d="M244.361 162.801H143.519C140.762 162.798 138.118 161.532 136.169 159.282C134.219 157.032 133.123 153.982 133.119 150.8V85.6301C133.123 82.4483 134.219 79.3979 136.169 77.148C138.118 74.8981 140.762 73.6325 143.519 73.6289H244.361C247.118 73.6325 249.761 74.8981 251.711 77.148C253.66 79.3979 254.757 82.4483 254.76 85.6301V150.8C254.757 153.982 253.66 157.032 251.711 159.282C249.761 161.532 247.118 162.798 244.361 162.801V162.801Z" fill="#F67280"/>
<path d="M270.202 308.394H117.678C111.83 308.387 106.223 305.702 102.087 300.93C97.9517 296.157 95.6254 289.687 95.6188 282.937V25.4571C95.6254 18.7078 97.9517 12.2371 102.087 7.46467C106.223 2.6922 111.83 0.00765992 117.678 0H270.202C276.05 0.00765992 281.657 2.6922 285.792 7.46467C289.928 12.2371 292.254 18.7078 292.261 25.4571V282.937C292.254 289.687 289.928 296.157 285.792 300.93C281.657 305.702 276.05 308.387 270.202 308.394V308.394ZM117.678 4.36407C112.832 4.37039 108.186 6.59472 104.76 10.5491C101.333 14.5034 99.4059 19.8648 99.4004 25.4571V282.937C99.4059 288.53 101.333 293.891 104.76 297.845C108.186 301.8 112.832 304.024 117.678 304.03H270.202C275.047 304.024 279.693 301.8 283.12 297.845C286.546 293.891 288.474 288.53 288.479 282.937V25.4571C288.474 19.8648 286.546 14.5034 283.12 10.549C279.693 6.59469 275.047 4.37038 270.202 4.36407H117.678Z" fill="#E6E6E6"/>
</g>
<defs>
<clipPath id="clip0">
<rect width="398" height="432" fill="white"/>
</clipPath>
</defs>
</svg>
